<svg width="118" height="24" viewBox="0 0 118 24" fill="none" xmlns="http://www.w3.org/2000/svg">
<path d="M12.8174 17.375C12.8174 17.0137 12.7637 16.6914 12.6562 16.4082C12.5488 16.1152 12.3535 15.8467 12.0703 15.6025C11.7871 15.3584 11.3867 15.1143 10.8691 14.8701C10.3516 14.6162 9.67285 14.3574 8.83301 14.0938C7.87598 13.7812 6.96289 13.4297 6.09375 13.0391C5.23438 12.6387 4.46777 12.1748 3.79395 11.6475C3.12012 11.1201 2.58789 10.5049 2.19727 9.80176C1.81641 9.09863 1.62598 8.27832 1.62598 7.34082C1.62598 6.43262 1.82617 5.6123 2.22656 4.87988C2.62695 4.14746 3.18848 3.52246 3.91113 3.00488C4.63379 2.47754 5.4834 2.07715 6.45996 1.80371C7.43652 1.52051 8.51074 1.37891 9.68262 1.37891C11.2451 1.37891 12.6172 1.65723 13.7988 2.21387C14.9902 2.76074 15.918 3.53223 16.582 4.52832C17.2461 5.51465 17.5781 6.66211 17.5781 7.9707H12.832C12.832 7.39453 12.71 6.88672 12.4658 6.44727C12.2314 5.99805 11.8701 5.64648 11.3818 5.39258C10.9033 5.13867 10.3027 5.01172 9.58008 5.01172C8.87695 5.01172 8.28613 5.11914 7.80762 5.33398C7.33887 5.53906 6.98242 5.82227 6.73828 6.18359C6.50391 6.54492 6.38672 6.94043 6.38672 7.37012C6.38672 7.71191 6.47461 8.02441 6.65039 8.30762C6.83594 8.58105 7.09961 8.83984 7.44141 9.08398C7.79297 9.31836 8.22266 9.54297 8.73047 9.75781C9.23828 9.97266 9.81934 10.1777 10.4736 10.373C11.6162 10.7344 12.627 11.1348 13.5059 11.5742C14.3945 12.0137 15.1416 12.5117 15.7471 13.0684C16.3525 13.625 16.8066 14.2549 17.1094 14.958C17.4219 15.6611 17.5781 16.457 17.5781 17.3457C17.5781 18.293 17.3926 19.1328 17.0215 19.8652C16.6602 20.5977 16.1328 21.2227 15.4395 21.7402C14.7559 22.248 13.9355 22.6338 12.9785 22.8975C12.0215 23.1611 10.9521 23.293 9.77051 23.293C8.69629 23.293 7.63672 23.1562 6.5918 22.8828C5.54688 22.5996 4.59961 22.1699 3.75 21.5938C2.91016 21.0176 2.23633 20.2852 1.72852 19.3965C1.23047 18.498 0.981445 17.4336 0.981445 16.2031H5.75684C5.75684 16.8477 5.84961 17.3945 6.03516 17.8438C6.2207 18.2832 6.48438 18.6396 6.82617 18.9131C7.17773 19.1865 7.60254 19.3818 8.10059 19.499C8.59863 19.6162 9.15527 19.6748 9.77051 19.6748C10.4834 19.6748 11.0596 19.5771 11.499 19.3818C11.9482 19.1768 12.2803 18.8984 12.4951 18.5469C12.71 18.1953 12.8174 17.8047 12.8174 17.375ZM24.7559 0.485352V23H20.1709V0.485352H24.7559ZM34.8193 7.15039L27.9199 15.1191L24.2725 18.7812L22.4414 15.6904L25.4004 11.8672L29.3115 7.15039H34.8193ZM29.9854 23L25.5176 15.7197L28.7988 13.1562L35.2295 23H29.9854ZM41.2061 7.15039V23H36.6211V7.15039H41.2061ZM36.3428 3.04883C36.3428 2.38477 36.5771 1.84277 37.0459 1.42285C37.5146 0.993164 38.1299 0.77832 38.8916 0.77832C39.6533 0.77832 40.2686 0.993164 40.7373 1.42285C41.2158 1.84277 41.4551 2.38477 41.4551 3.04883C41.4551 3.70313 41.2158 4.24512 40.7373 4.6748C40.2686 5.09473 39.6533 5.30469 38.8916 5.30469C38.1299 5.30469 37.5146 5.09473 37.0459 4.6748C36.5771 4.24512 36.3428 3.70313 36.3428 3.04883ZM49.3213 0.5V23H44.7363V0.5H49.3213ZM57.4365 0.5V23H52.8516V0.5H57.4365ZM69.9609 19.4551V0.5H74.5605V23H70.4297L69.9609 19.4551ZM60.0879 15.2656V14.958C60.0879 13.7568 60.2197 12.6631 60.4834 11.6768C60.7568 10.6807 61.1523 9.82617 61.6699 9.11328C62.1973 8.39062 62.8467 7.83398 63.6182 7.44336C64.3896 7.05273 65.2734 6.85742 66.2695 6.85742C67.1875 6.85742 67.9883 7.0625 68.6719 7.47266C69.3555 7.87305 69.9365 8.43945 70.415 9.17188C70.9033 9.89453 71.2988 10.749 71.6016 11.7354C71.9043 12.7119 72.1338 13.7715 72.29 14.9141V15.4414C72.1436 16.5352 71.9141 17.5557 71.6016 18.5029C71.2988 19.4502 70.9033 20.2852 70.415 21.0078C69.9365 21.7207 69.3506 22.2822 68.6572 22.6924C67.9736 23.0928 67.168 23.293 66.2402 23.293C65.2441 23.293 64.3604 23.0928 63.5889 22.6924C62.8271 22.292 62.1875 21.7305 61.6699 21.0078C61.1523 20.2852 60.7568 19.4355 60.4834 18.459C60.2197 17.4824 60.0879 16.418 60.0879 15.2656ZM64.6582 14.958V15.2656C64.6582 15.8906 64.7021 16.4717 64.79 17.0088C64.8877 17.5459 65.0439 18.0195 65.2588 18.4297C65.4736 18.8398 65.7568 19.1621 66.1084 19.3965C66.46 19.6211 66.8896 19.7334 67.3975 19.7334C68.0811 19.7334 68.6426 19.5771 69.082 19.2646C69.5215 18.9424 69.8535 18.498 70.0781 17.9316C70.3027 17.3652 70.4199 16.7061 70.4297 15.9541V14.416C70.4297 13.791 70.3662 13.2295 70.2393 12.7314C70.1123 12.2334 69.9219 11.8135 69.668 11.4717C69.4238 11.1299 69.1162 10.8711 68.7451 10.6953C68.374 10.5098 67.9346 10.417 67.4268 10.417C66.9287 10.417 66.5039 10.5342 66.1523 10.7686C65.8008 10.9932 65.5127 11.3105 65.2881 11.7207C65.0732 12.1309 64.9121 12.6143 64.8047 13.1709C64.707 13.7178 64.6582 14.3135 64.6582 14.958ZM76.9482 15.2363V14.9287C76.9482 13.7666 77.1143 12.6973 77.4463 11.7207C77.7783 10.7344 78.2666 9.87988 78.9111 9.15723C79.5557 8.43457 80.3467 7.87305 81.2842 7.47266C82.2217 7.0625 83.2959 6.85742 84.5068 6.85742C85.7373 6.85742 86.8213 7.0625 87.7588 7.47266C88.7061 7.87305 89.502 8.43457 90.1465 9.15723C90.791 9.87988 91.2793 10.7344 91.6113 11.7207C91.9434 12.6973 92.1094 13.7666 92.1094 14.9287V15.2363C92.1094 16.3887 91.9434 17.458 91.6113 18.4443C91.2793 19.4209 90.791 20.2754 90.1465 21.0078C89.502 21.7305 88.7109 22.292 87.7734 22.6924C86.8359 23.0928 85.7568 23.293 84.5361 23.293C83.3252 23.293 82.2461 23.0928 81.2988 22.6924C80.3516 22.292 79.5557 21.7305 78.9111 21.0078C78.2666 20.2754 77.7783 19.4209 77.4463 18.4443C77.1143 17.458 76.9482 16.3887 76.9482 15.2363ZM81.5332 14.9287V15.2363C81.5332 15.8613 81.582 16.4473 81.6797 16.9941C81.7871 17.541 81.958 18.0195 82.1924 18.4297C82.4268 18.8398 82.7344 19.1621 83.1152 19.3965C83.5059 19.6211 83.9795 19.7334 84.5361 19.7334C85.0928 19.7334 85.5615 19.6211 85.9424 19.3965C86.3232 19.1621 86.6309 18.8398 86.8652 18.4297C87.0996 18.0195 87.2656 17.541 87.3633 16.9941C87.4707 16.4473 87.5244 15.8613 87.5244 15.2363V14.9287C87.5244 14.3135 87.4707 13.7373 87.3633 13.2002C87.2656 12.6533 87.0996 12.1699 86.8652 11.75C86.6309 11.3301 86.3184 11.0029 85.9277 10.7686C85.5469 10.5342 85.0732 10.417 84.5068 10.417C83.96 10.417 83.4961 10.5342 83.1152 10.7686C82.7344 11.0029 82.4268 11.3301 82.1924 11.75C81.958 12.1699 81.7871 12.6533 81.6797 13.2002C81.582 13.7373 81.5332 14.3135 81.5332 14.9287ZM102.568 7.15039V10.3584H93.1641V7.15039H102.568ZM95.3174 3.22461H99.9023V18.0342C99.9023 18.4736 99.9561 18.8105 100.063 19.0449C100.171 19.2793 100.347 19.4453 100.591 19.543C100.835 19.6309 101.147 19.6748 101.528 19.6748C101.802 19.6748 102.036 19.665 102.231 19.6455C102.427 19.626 102.607 19.6016 102.773 19.5723V22.8828C102.383 23.0098 101.968 23.1074 101.528 23.1758C101.089 23.2539 100.61 23.293 100.093 23.293C99.1064 23.293 98.252 23.1318 97.5293 22.8096C96.8164 22.4873 96.2695 21.9795 95.8887 21.2861C95.5078 20.583 95.3174 19.6699 95.3174 18.5469V3.22461ZM113.203 18.5908C113.203 18.2979 113.11 18.0391 112.925 17.8145C112.749 17.5898 112.427 17.3848 111.958 17.1992C111.499 17.0137 110.85 16.8281 110.01 16.6426C109.219 16.4766 108.481 16.2617 107.798 15.998C107.114 15.7246 106.519 15.3975 106.011 15.0166C105.503 14.626 105.107 14.167 104.824 13.6396C104.541 13.1025 104.399 12.4922 104.399 11.8086C104.399 11.1445 104.541 10.5146 104.824 9.91895C105.117 9.32324 105.537 8.7959 106.084 8.33691C106.641 7.87793 107.314 7.5166 108.105 7.25293C108.906 6.98926 109.814 6.85742 110.83 6.85742C112.227 6.85742 113.433 7.07715 114.448 7.5166C115.464 7.94629 116.245 8.55176 116.792 9.33301C117.339 10.1045 117.612 10.9883 117.612 11.9844H113.042C113.042 11.5742 112.964 11.2178 112.808 10.915C112.651 10.6123 112.412 10.3779 112.09 10.2119C111.768 10.0361 111.343 9.94824 110.815 9.94824C110.405 9.94824 110.044 10.0215 109.731 10.168C109.429 10.3047 109.189 10.4951 109.014 10.7393C108.848 10.9834 108.765 11.2666 108.765 11.5889C108.765 11.8135 108.813 12.0186 108.911 12.2041C109.019 12.3799 109.18 12.5459 109.395 12.7021C109.619 12.8486 109.907 12.9805 110.259 13.0977C110.62 13.2148 111.06 13.3271 111.577 13.4346C112.681 13.6396 113.687 13.9277 114.595 14.2988C115.513 14.6699 116.245 15.1826 116.792 15.8369C117.349 16.4912 117.627 17.3555 117.627 18.4297C117.627 19.1328 117.466 19.7773 117.144 20.3633C116.831 20.9492 116.377 21.4619 115.781 21.9014C115.186 22.3408 114.473 22.6826 113.643 22.9268C112.812 23.1709 111.875 23.293 110.83 23.293C109.336 23.293 108.071 23.0244 107.036 22.4873C106.001 21.9502 105.22 21.2764 104.692 20.4658C104.175 19.6455 103.916 18.8057 103.916 17.9463H108.208C108.228 18.4736 108.359 18.9033 108.604 19.2354C108.857 19.5674 109.185 19.8115 109.585 19.9678C109.985 20.1143 110.435 20.1875 110.933 20.1875C111.431 20.1875 111.846 20.1191 112.178 19.9824C112.51 19.8457 112.764 19.6602 112.939 19.4258C113.115 19.1816 113.203 18.9033 113.203 18.5908Z" fill="#204ECF"/>
</svg>
