<svg width="300" height="77" viewBox="0 0 300 77" fill="none" xmlns="http://www.w3.org/2000/svg">
<path d="M14.8097 63.1196C16.9457 63.1196 18.9395 62.8342 20.6483 62.4058C22.4994 61.9774 23.6388 61.4059 24.4932 60.9775C25.205 60.5491 25.7748 60.1207 26.3443 59.5496V53.1233C25.9171 53.409 25.4899 53.6947 24.9204 53.8374C24.4932 53.9802 23.7811 53.9802 23.2115 53.9802C21.645 53.9802 20.506 53.5517 19.7939 52.8379C19.0818 51.9811 18.6546 50.2674 18.6546 47.6969V29.9888H26.6292V21.7065H18.7972V10.5677H10.5376L5.69601 21.7065L0 23.4202V29.9891H3.27536V46.269C3.27536 52.4095 4.12978 56.6934 5.83861 59.2639C7.54744 61.8344 10.5376 63.1196 14.8097 63.1196ZM52.1212 37.5576H44.8586V33.5592C44.8586 32.4166 44.8586 31.4171 45.0012 30.703C45.0012 29.9891 45.2858 29.1323 45.5707 28.5609C45.8556 27.7041 46.2828 27.2756 46.8524 26.8472C47.4219 26.5618 48.2763 26.4188 49.1307 26.4188C50.27 26.4188 50.9818 27.2756 51.4091 28.9893C51.8363 30.5603 52.1212 33.4165 52.1212 37.5576ZM48.2763 63.1196C50.1274 63.1196 52.1212 62.8342 54.2572 62.4058C56.3932 61.9774 58.5293 61.1205 60.8076 59.8353C63.086 58.55 64.7948 56.9791 65.9341 55.1227L63.086 50.2674C62.2316 51.1242 61.0925 51.8381 59.8109 52.4095C58.5293 52.9809 57.2477 53.409 55.966 53.6947C54.6844 53.9804 53.4028 54.1232 52.4061 54.1232C51.2667 54.1232 50.27 54.1232 49.4156 53.8374C48.7035 53.6947 47.8491 53.2663 47.1373 52.6949C46.4254 52.1235 45.8556 51.2669 45.4284 50.1244C45.0012 48.8392 44.8586 47.2685 44.8586 45.4118V44.555H66.5036V39.2713C66.5036 32.7023 65.222 27.9898 62.5165 25.1336C59.8109 22.1346 55.2539 20.7067 49.1307 20.7067C42.5803 20.7067 37.5961 22.5634 33.8938 26.1334C30.3338 29.8461 28.4824 35.2728 28.4824 42.2702C28.4824 45.2691 28.9096 47.9823 29.6217 50.4101C30.3338 52.8379 31.3306 54.98 32.8971 56.9791C34.321 58.9784 36.4571 60.4064 39.0203 61.5489C41.5836 62.5485 44.7163 63.1196 48.2763 63.1196ZM92.1344 57.8359L93.7009 62.1201H106.659L105.378 58.407V38.9859C105.378 35.5585 105.093 32.7023 104.523 30.4176C103.954 28.1328 103.099 26.2761 101.818 24.7054C100.536 23.2772 98.8274 22.2776 96.8337 21.7065C94.6976 20.9924 92.1344 20.7067 89.0016 20.7067C85.4416 20.7067 81.8814 21.2781 78.4637 22.2776C74.9037 23.4202 72.1982 24.5624 70.0621 25.9907L73.0526 32.4169C74.1919 31.8455 75.9004 31.2744 78.0365 30.846C80.1725 30.4176 82.1663 30.1318 84.16 30.1318C86.4383 30.1318 88.1472 30.5603 89.1439 31.2744C90.1406 32.1312 90.7104 33.4165 90.7104 35.4155V36.2724C89.5711 36.2724 88.4321 36.2724 87.2928 36.4154C86.1534 36.5584 84.7295 36.7008 83.3056 36.9865C81.8817 37.2722 80.4574 37.5576 79.0335 37.986C77.7519 38.4145 76.3277 39.1286 75.0463 39.8427C73.765 40.5568 72.6254 41.4134 71.6287 42.4132C70.6317 43.27 69.9198 44.4123 69.35 45.8405C68.6382 47.2685 68.3533 48.6964 68.3533 50.4101C68.3533 58.8354 72.6254 63.1196 81.1695 63.1196C82.4512 63.1196 83.7328 62.9769 84.8718 62.5485C86.1534 62.2628 87.1505 61.8343 88.0049 61.2632C88.8593 60.6921 89.5711 60.2637 90.2832 59.6923C90.8527 59.2639 91.2799 58.8354 91.7072 58.407L92.1344 57.8359ZM88.4321 54.6943C85.7262 54.6943 84.3023 52.6949 84.3023 48.8392C84.3023 46.5544 84.8718 44.9834 86.0111 43.8412C87.1505 42.8413 88.7167 42.2702 90.7104 42.2702V53.6947L90.4255 53.9802L89.5711 54.4086C89.1439 54.6943 88.8593 54.6943 88.4321 54.6943ZM126.738 62.1201V34.416L128.162 33.1308C128.305 33.1308 128.447 32.9881 128.59 32.845C128.732 32.702 128.874 32.7023 129.017 32.7023C129.159 32.5596 129.301 32.5596 129.444 32.4166C129.586 32.4166 129.871 32.2739 130.014 32.2739C130.156 32.2739 130.298 32.2739 130.441 32.1312H131.01C133.574 32.1312 134.855 33.5592 134.713 36.5581V62.1201H150.377V39.414C150.377 37.5576 150.377 35.9867 150.235 34.416C151.801 32.845 153.083 32.1312 154.08 32.1312C155.361 32.1312 156.358 32.5596 157.07 33.2735C157.782 34.1303 158.067 35.2728 158.067 36.5581V62.1201H173.446V37.986C173.446 33.4165 173.161 29.9891 172.307 27.5613C171.595 24.9909 170.456 23.2772 168.747 22.2776C167.038 21.2781 164.759 20.7067 161.769 20.7067C159.063 20.7067 156.642 21.5635 154.364 23.1345C152.228 24.8481 150.519 26.5618 149.38 28.4182C148.668 25.705 147.529 23.7056 145.82 22.5634C144.254 21.2781 141.833 20.7067 138.557 20.7067C137.418 20.7067 136.137 20.9924 134.855 21.4208C133.574 21.9919 132.577 22.4204 131.722 23.1345C130.868 23.7056 130.014 24.4197 129.159 25.1339L127.45 26.8475C127.165 27.2759 126.881 27.5613 126.738 27.8471V21.7065H118.764L108.511 24.4197V29.5607L111.359 31.2744V62.1201H126.738ZM190.64 63.1196C192.776 63.1196 194.769 62.8342 196.478 62.4058C198.329 61.9774 199.469 61.4059 200.323 60.9775C201.035 60.5491 201.605 60.1207 202.174 59.5496V53.1233C201.747 53.409 201.32 53.6947 200.75 53.8374C200.323 53.9802 199.611 53.9802 199.042 53.9802C197.475 53.9802 196.336 53.5517 195.624 52.8379C194.912 51.9811 194.485 50.2674 194.485 47.6969V29.9888H202.459V21.7065H194.627V10.5677H186.368L181.526 21.7065L175.83 23.4202V29.9891H179.105V46.269C179.105 52.4095 179.96 56.6934 181.669 59.2639C183.377 61.8344 186.368 63.1196 190.64 63.1196ZM221.958 62.1201V40.4138C222.813 38.7002 224.949 37.8433 228.082 37.8433C230.36 37.8433 231.784 38.129 232.496 38.7002L234.063 21.7065C233.208 21.4208 232.496 21.2781 231.642 21.2781C224.664 21.2781 220.392 25.2766 219.111 32.9881L217.829 21.7065H213.984L203.731 24.134V29.5607L206.579 31.2744V62.1201H221.958ZM237.81 62.1201H253.047V21.7065H245.215L234.962 24.4197V29.5607L237.81 31.2744V62.1201ZM244.645 17.2794H246.496L254.613 9.42516V7.71149L246.496 0H244.645L236.955 7.71149V9.42516L244.645 17.2794ZM284.051 62.1201C286.614 62.1201 289.035 61.5489 291.029 60.4064C293.022 59.4069 294.731 57.8359 296.013 55.9795C297.294 53.9802 298.291 51.6954 299.003 49.2676C299.573 46.6971 300 43.9839 300 40.985C300 34.7017 298.718 29.7034 296.297 26.1334C293.876 22.5634 290.032 20.7067 284.763 20.7067C282.627 20.7067 280.776 21.1351 279.067 21.8492C277.501 22.7061 276.076 23.7056 274.937 24.8481V21.7065H267.105L256.852 24.4197V29.5607L259.7 31.2744V76.5432H274.937V60.1207C276.077 60.6921 277.501 61.1205 278.924 61.5489C280.491 61.9774 282.2 62.1201 284.051 62.1201ZM277.073 55.5511C276.646 55.5511 276.361 55.5511 276.077 55.4081C275.792 55.4081 275.365 55.4081 274.937 55.2654V30.1318C276.077 29.5607 277.216 29.1323 278.212 29.1323C279.779 29.1323 280.918 29.8461 281.915 31.2744C282.912 32.7026 283.339 34.8444 283.339 37.7006V45.6975C283.339 52.2665 281.203 55.5511 277.073 55.5511Z" fill="#404142"/>
</svg>
