<svg width="47" height="47" viewBox="0 0 47 47" fill="none" xmlns="http://www.w3.org/2000/svg">
<g filter="url(#filter0_d_752_10)">
<circle cx="23.5" cy="19.5" r="19.5" fill="#D9D9D9"/>
<path d="M26.8174 24.375C26.8174 24.0137 26.7637 23.6914 26.6562 23.4082C26.5488 23.1152 26.3535 22.8467 26.0703 22.6025C25.7871 22.3584 25.3867 22.1143 24.8691 21.8701C24.3516 21.6162 23.6729 21.3574 22.833 21.0938C21.876 20.7812 20.9629 20.4297 20.0938 20.0391C19.2344 19.6387 18.4678 19.1748 17.7939 18.6475C17.1201 18.1201 16.5879 17.5049 16.1973 16.8018C15.8164 16.0986 15.626 15.2783 15.626 14.3408C15.626 13.4326 15.8262 12.6123 16.2266 11.8799C16.627 11.1475 17.1885 10.5225 17.9111 10.0049C18.6338 9.47754 19.4834 9.07715 20.46 8.80371C21.4365 8.52051 22.5107 8.37891 23.6826 8.37891C25.2451 8.37891 26.6172 8.65723 27.7988 9.21387C28.9902 9.76074 29.918 10.5322 30.582 11.5283C31.2461 12.5146 31.5781 13.6621 31.5781 14.9707H26.832C26.832 14.3945 26.71 13.8867 26.4658 13.4473C26.2314 12.998 25.8701 12.6465 25.3818 12.3926C24.9033 12.1387 24.3027 12.0117 23.5801 12.0117C22.877 12.0117 22.2861 12.1191 21.8076 12.334C21.3389 12.5391 20.9824 12.8223 20.7383 13.1836C20.5039 13.5449 20.3867 13.9404 20.3867 14.3701C20.3867 14.7119 20.4746 15.0244 20.6504 15.3076C20.8359 15.5811 21.0996 15.8398 21.4414 16.084C21.793 16.3184 22.2227 16.543 22.7305 16.7578C23.2383 16.9727 23.8193 17.1777 24.4736 17.373C25.6162 17.7344 26.627 18.1348 27.5059 18.5742C28.3945 19.0137 29.1416 19.5117 29.7471 20.0684C30.3525 20.625 30.8066 21.2549 31.1094 21.958C31.4219 22.6611 31.5781 23.457 31.5781 24.3457C31.5781 25.293 31.3926 26.1328 31.0215 26.8652C30.6602 27.5977 30.1328 28.2227 29.4395 28.7402C28.7559 29.248 27.9355 29.6338 26.9785 29.8975C26.0215 30.1611 24.9521 30.293 23.7705 30.293C22.6963 30.293 21.6367 30.1562 20.5918 29.8828C19.5469 29.5996 18.5996 29.1699 17.75 28.5938C16.9102 28.0176 16.2363 27.2852 15.7285 26.3965C15.2305 25.498 14.9814 24.4336 14.9814 23.2031H19.7568C19.7568 23.8477 19.8496 24.3945 20.0352 24.8438C20.2207 25.2832 20.4844 25.6396 20.8262 25.9131C21.1777 26.1865 21.6025 26.3818 22.1006 26.499C22.5986 26.6162 23.1553 26.6748 23.7705 26.6748C24.4834 26.6748 25.0596 26.5771 25.499 26.3818C25.9482 26.1768 26.2803 25.8984 26.4951 25.5469C26.71 25.1953 26.8174 24.8047 26.8174 24.375Z" fill="#204ECF"/>
</g>
<defs>
<filter id="filter0_d_752_10" x="0" y="0" width="47" height="47" filterUnits="userSpaceOnUse" color-interpolation-filters="sRGB">
<feFlood flood-opacity="0" result="BackgroundImageFix"/>
<feColorMatrix in="SourceAlpha" type="matrix" values="0 0 0 0 0 0 0 0 0 0 0 0 0 0 0 0 0 0 127 0" result="hardAlpha"/>
<feOffset dy="4"/>
<feGaussianBlur stdDeviation="2"/>
<feComposite in2="hardAlpha" operator="out"/>
<feColorMatrix type="matrix" values="0 0 0 0 0 0 0 0 0 0 0 0 0 0 0 0 0 0 0.25 0"/>
<feBlend mode="normal" in2="BackgroundImageFix" result="effect1_dropShadow_752_10"/>
<feBlend mode="normal" in="SourceGraphic" in2="effect1_dropShadow_752_10" result="shape"/>
</filter>
</defs>
</svg>
